<svg xmlns="http://www.w3.org/2000/svg" xmlns:xlink="http://www.w3.org/1999/xlink" version="1.1" style="" xml:space="preserve" width="809.0599975585938" height="768.27001953125"><rect id="backgroundrect" width="100%" height="100%" x="0" y="0" fill="none" stroke="none"/>
<style type="text/css">
	.st0{fill:#1B1C35;stroke:#1B1C35;stroke-miterlimit:10;}
	.st1{fill:#F1575E;}
	.st2{fill:#B2BDC9;}
	.st3{fill:#FF55A6;}
	.st4{fill:#FFFFFF;}
	.st5{fill:#8A849A;}
	.st6{fill:#6280E3;}
	.st7{fill:#F8C73B;}
</style>





















<g class="currentLayer" style=""><title>Layer 1</title><rect x="0.5" y="0.49000000953674316" class="st0" width="808.0800170898438" height="767.2999877929688" id="svg_1"/><path class="st1" d="M809.02,455.35v-27.81c-2.76,0.16-5.36,1.32-7.32,3.27L696.23,536.32c-4.42,4.38-4.45,11.52-0.06,15.94  c0.02,0.02,0.04,0.04,0.06,0.06l0,0c4.4,4.4,11.54,4.4,15.94,0c0,0,0,0,0,0l96.85-96.93V455.35z" id="svg_2"/><path class="st1" d="M650.31,717.45L650.31,717.45c-6.81-6.82-17.85-6.82-24.66-0.02c-0.01,0.01-0.01,0.01-0.02,0.02l-50.74,50.74  h47.56c0.3,0,0.6,0.03,0.9,0.08c0.16-0.01,0.31-0.01,0.47,0h0.41l0,0l26.06-26.07c6.84-6.77,6.89-17.81,0.12-24.65  C650.38,717.52,650.34,717.48,650.31,717.45z" id="svg_3"/><path class="st2" d="M661.93,678.64l52.65-52.65c0.62-0.62,1.64-0.62,2.26,0l0.01,0.01c0.62,0.62,0.62,1.64,0,2.26l-52.65,52.65  c-0.62,0.62-1.64,0.62-2.26,0l-0.01-0.01C661.3,680.27,661.3,679.26,661.93,678.64z" id="svg_4"/><path class="st3" d="M712.67,694.88l47.15-47.15c2.14-2.14,5.62-2.14,7.76,0l0,0c2.14,2.14,2.14,5.62,0,7.76l-47.15,47.15  c-2.14,2.14-5.62,2.14-7.76,0l0,0C710.53,700.5,710.53,697.02,712.67,694.88z" id="svg_5"/><path class="st4" d="M690.55,730.59c-0.53-0.54-1.39-0.54-1.92-0.02c-0.01,0.01-0.01,0.01-0.02,0.02l-37.59,37.6h3.88l35.66-35.66  c0.53-0.53,0.54-1.39,0.01-1.92C690.56,730.6,690.56,730.6,690.55,730.59z" id="svg_6"/><path class="st5" d="M694.27,604.93l42.08-42.08c0.12-0.12,0.32-0.12,0.44,0l0,0c0.12,0.12,0.12,0.32,0,0.44l-42.08,42.08  c-0.12,0.12-0.32,0.12-0.44,0l0,0C694.15,605.25,694.15,605.05,694.27,604.93z" id="svg_7"/><path class="st6" d="M802.47,679.61c-5.8-5.8-15.2-5.8-21,0l-88.51,88.51h42l67.51-67.51C808.27,694.81,808.27,685.41,802.47,679.61  z" id="svg_8"/><path class="st7" d="M809.02,526.48l-28.63,28.68c-6.7,6.7-6.7,17.57,0,24.27l0,0c6.7,6.7,17.55,6.7,24.25,0.01c0,0,0,0,0.01-0.01  l4.37-4.37V526.48z" id="svg_9"/><path class="st6" d="M67.33,0.06c-0.26,0.02-0.52,0.02-0.78,0L15.23,51.32c-4.4,4.4-4.41,11.54-0.01,15.94  c4.4,4.4,11.54,4.41,15.95,0L98.38,0.06H67.33z" id="svg_10"/><path class="st7" d="M27.84,149.97c-4.49-4.49-11.78-4.49-16.27,0L0.02,161.55v12.73c0,0.17,0,0.33,0,0.5v18.87  c0,0.14,0,0.28,0,0.42l27.83-27.83C32.34,161.74,32.33,154.46,27.84,149.97z" id="svg_11"/><path class="st3" d="M63.14,164.42l37.19-37.19c1.32-1.32,3.45-1.32,4.77,0l0,0c1.32,1.32,1.32,3.45,0,4.77L67.9,169.18  c-1.32,1.32-3.45,1.32-4.77,0l0,0C61.82,167.87,61.82,165.73,63.14,164.42z" id="svg_12"/><path class="st4" d="M198.92,164.63l52.65-52.65c0.62-0.62,1.64-0.62,2.26,0l0.01,0.01c0.62,0.62,0.62,1.64,0,2.26l-52.65,52.65  c-0.62,0.62-1.64,0.62-2.26,0l-0.01-0.01C198.3,166.27,198.3,165.26,198.92,164.63z" id="svg_13"/><path class="st4" d="M4.03,226.18l40.58-40.58c0.54-0.54,1.4-0.54,1.94,0l0.01,0.01c0.54,0.54,0.54,1.4,0,1.94L5.97,228.12  c-0.54,0.54-1.4,0.54-1.94,0l-0.01-0.01C3.49,227.58,3.49,226.71,4.03,226.18z" id="svg_14"/><path class="st5" d="M88.03,223.18l40.58-40.58c0.54-0.54,1.4-0.54,1.94,0l0.01,0.01c0.54,0.54,0.54,1.4,0,1.94l-40.58,40.58  c-0.54,0.54-1.4,0.54-1.94,0l-0.01-0.01C87.5,224.58,87.5,223.72,88.03,223.18z" id="svg_15"/><path class="st4" d="M120.03,110.18l40.58-40.58c0.54-0.54,1.4-0.54,1.94,0l0.01,0.01c0.54,0.54,0.54,1.4,0,1.94l-40.58,40.58  c-0.54,0.54-1.4,0.54-1.94,0l-0.01-0.01C119.49,111.58,119.49,110.72,120.03,110.18z" id="svg_16"/><path class="st5" d="M13.28,119.93l42.08-42.08c0.12-0.12,0.32-0.12,0.44,0h0c0.12,0.12,0.12,0.32,0,0.44l-42.08,42.08  c-0.12,0.12-0.32,0.12-0.44,0l0,0C13.16,120.24,13.16,120.05,13.28,119.93z" id="svg_17"/><path class="st6" d="M35.47,256.61c-5.8-5.8-15.2-5.8-21,0L0.02,271.06v42l35.41-35.41c5.82-5.78,5.86-15.18,0.08-21  C35.5,256.64,35.48,256.62,35.47,256.61z" id="svg_18"/><path class="st2" d="M50.13,317.95l62.23-62.23c3.65-3.65,9.57-3.65,13.22,0l0,0c3.65,3.65,3.65,9.57,0,13.22l-62.23,62.23  c-3.65,3.65-9.57,3.65-13.22,0l0,0C46.48,327.52,46.48,321.6,50.13,317.95z" id="svg_19"/><path class="st1" d="M141.39,132.16L256.13,17.43c6.7-6.7,17.57-6.7,24.27,0l0,0c6.7,6.7,6.7,17.57,0,24.27L165.66,156.43  c-6.7,6.7-17.57,6.7-24.27,0l0,0C134.69,149.73,134.69,138.86,141.39,132.16z" id="svg_20"/><path class="st7" d="M161.49,0.06l-46.1,46.1c-6.7,6.7-6.7,17.57,0,24.27l0,0c6.7,6.7,17.55,6.7,24.25,0.01c0,0,0,0,0.01-0.01  l70.37-70.37H161.49z" id="svg_21"/></g></svg>