<svg id="visual" viewBox="0 0 900 600" width="900" height="600" xmlns="http://www.w3.org/2000/svg" xmlns:xlink="http://www.w3.org/1999/xlink" version="1.1"><rect x="0" y="0" width="900" height="600" fill="#ffffff"></rect><path d="M0 461L18.8 453.2C37.7 445.3 75.3 429.7 112.8 420.8C150.3 412 187.7 410 225.2 416C262.7 422 300.3 436 337.8 445.3C375.3 454.7 412.7 459.3 450.2 459C487.7 458.7 525.3 453.3 562.8 450.8C600.3 448.3 637.7 448.7 675.2 443.7C712.7 438.7 750.3 428.3 787.8 421.5C825.3 414.7 862.7 411.3 881.3 409.7L900 408L900 601L881.3 601C862.7 601 825.3 601 787.8 601C750.3 601 712.7 601 675.2 601C637.7 601 600.3 601 562.8 601C525.3 601 487.7 601 450.2 601C412.7 601 375.3 601 337.8 601C300.3 601 262.7 601 225.2 601C187.7 601 150.3 601 112.8 601C75.3 601 37.7 601 18.8 601L0 601Z" fill="#eef8ef"></path><path d="M0 495L18.8 500.5C37.7 506 75.3 517 112.8 520.7C150.3 524.3 187.7 520.7 225.2 513.3C262.7 506 300.3 495 337.8 495.2C375.3 495.3 412.7 506.7 450.2 510C487.7 513.3 525.3 508.7 562.8 506.7C600.3 504.7 637.7 505.3 675.2 512C712.7 518.7 750.3 531.3 787.8 538.8C825.3 546.3 862.7 548.7 881.3 549.8L900 551L900 601L881.3 601C862.7 601 825.3 601 787.8 601C750.3 601 712.7 601 675.2 601C637.7 601 600.3 601 562.8 601C525.3 601 487.7 601 450.2 601C412.7 601 375.3 601 337.8 601C300.3 601 262.7 601 225.2 601C187.7 601 150.3 601 112.8 601C75.3 601 37.7 601 18.8 601L0 601Z" fill="#dcefdc"></path></svg>