<svg id="visual" viewBox="0 0 900 600" width="900" height="600" xmlns="http://www.w3.org/2000/svg" xmlns:xlink="http://www.w3.org/1999/xlink" version="1.1"><rect x="0" y="0" width="900" height="600" fill="#ffffff"></rect><path d="M0 399L150 473L300 443L450 415L600 452L750 475L900 420L900 601L750 601L600 601L450 601L300 601L150 601L0 601Z" fill="#b4f6b4"></path><path d="M0 452L150 451L300 481L450 470L600 436L750 478L900 464L900 601L750 601L600 601L450 601L300 601L150 601L0 601Z" fill="#c5f8c7"></path><path d="M0 495L150 482L300 513L450 540L600 533L750 496L900 512L900 601L750 601L600 601L450 601L300 601L150 601L0 601Z" fill="#d7fad9"></path><path d="M0 563L150 550L300 566L450 559L600 577L750 553L900 524L900 601L750 601L600 601L450 601L300 601L150 601L0 601Z" fill="#e8fcea"></path></svg>